<?xml version="1.0" encoding="UTF-8" standalone="no"?>
<!-- Created with Inkscape (http://www.inkscape.org/) -->

<svg
   width="125.66988mm"
   height="38.448189mm"
   viewBox="0 0 125.66987 38.448189"
   version="1.1"
   id="svg5"
   inkscape:version="1.1.2 (0a00cf5339, 2022-02-04)"
   sodipodi:docname="logo_polytech-lille.svg"
   xmlns:inkscape="http://www.inkscape.org/namespaces/inkscape"
   xmlns:sodipodi="http://sodipodi.sourceforge.net/DTD/sodipodi-0.dtd"
   xmlns="http://www.w3.org/2000/svg"
   xmlns:svg="http://www.w3.org/2000/svg">
  <sodipodi:namedview
     id="namedview7"
     pagecolor="#ffffff"
     bordercolor="#666666"
     borderopacity="1.0"
     inkscape:pageshadow="2"
     inkscape:pageopacity="0.0"
     inkscape:pagecheckerboard="0"
     inkscape:document-units="mm"
     showgrid="false"
     fit-margin-top="0"
     fit-margin-left="0"
     fit-margin-right="0"
     fit-margin-bottom="0"
     inkscape:zoom="1.9175014"
     inkscape:cx="194.52398"
     inkscape:cy="99.86955"
     inkscape:window-width="1920"
     inkscape:window-height="1011"
     inkscape:window-x="0"
     inkscape:window-y="0"
     inkscape:window-maximized="1"
     inkscape:current-layer="g1824" />
  <defs
     id="defs2" />
  <g
     inkscape:label="Calque 1"
     inkscape:groupmode="layer"
     id="layer1"
     transform="translate(-52.063394,-45.327084)">
    <g
       id="g1824"
       transform="translate(5.6142546,-53.976869)">
      <path
         style="fill:#aad3e7;stroke-width:0.120105"
         d="m 52.220766,137.68002 c 0.08743,-0.0344 0.191889,-0.0302 0.232135,0.009 0.04025,0.0396 -0.03129,0.0677 -0.158962,0.0625 -0.141091,-0.006 -0.169789,-0.0339 -0.07317,-0.072 z m 11.858874,-2.02937 c 0.215005,-0.0263 0.596513,-0.0267 0.847796,-9.5e-4 0.251282,0.0258 0.07537,0.0473 -0.390918,0.0478 -0.466288,4.8e-4 -0.671884,-0.0206 -0.456878,-0.0469 z m -1.685321,-0.1145 c 0.08743,-0.0344 0.191889,-0.0302 0.232135,0.009 0.04024,0.0396 -0.03129,0.0677 -0.158962,0.0626 -0.141092,-0.006 -0.169789,-0.0339 -0.07317,-0.072 z m -15.94518,-3.96817 c 0,-0.16377 0.02749,-0.23076 0.06109,-0.14888 0.0336,0.0819 0.0336,0.21588 0,0.29776 -0.0336,0.0819 -0.06109,0.0149 -0.06109,-0.14888 z m 43.997246,-4.04953 c 0,-1.53941 0.01726,-2.16917 0.03836,-1.39947 0.0211,0.76971 0.0211,2.02923 0,2.79894 -0.0211,0.76971 -0.03836,0.13995 -0.03836,-1.39947 z m 5.086777,0 c 0,-1.53941 0.01726,-2.16917 0.03836,-1.39947 0.0211,0.76971 0.0211,2.02923 0,2.79894 -0.0211,0.76971 -0.03836,0.13995 -0.03836,-1.39947 z m 12.837898,-0.0596 c 9e-5,-1.50666 0.0174,-2.1066 0.0386,-1.3332 0.0211,0.77341 0.0211,2.00613 -1.2e-4,2.73939 -0.0212,0.73326 -0.0385,0.10047 -0.0384,-1.40619 z m 3.71664,2.41563 -0.014,-0.32375 -1.42308,-0.0377 -1.42309,-0.0377 1.42689,-0.0256 c 1.50369,-0.027 1.63908,0.021 1.50413,0.53318 -0.0376,0.14253 -0.0615,0.10588 -0.0708,-0.10837 z M 78.404039,129.4982 c 0,-0.0247 0.09538,-0.11853 0.211949,-0.20843 0.192094,-0.14815 0.196378,-0.14394 0.04573,0.045 -0.158219,0.19839 -0.257677,0.26149 -0.257677,0.16346 z m 20.882452,-2.39666 c -1.08e-4,-1.31014 0.01759,-1.86236 0.03932,-1.22715 0.02173,0.63521 0.02182,1.70714 2.42e-4,2.38208 -0.02163,0.67493 -0.03941,0.15521 -0.03952,-1.15493 z m 5.086779,0 c -1.1e-4,-1.31014 0.0176,-1.86236 0.0393,-1.22715 0.0217,0.63521 0.0218,1.70714 2.4e-4,2.38208 -0.0216,0.67493 -0.0394,0.15521 -0.0395,-1.15493 z m -40.593713,1.28759 c 0.116572,-0.03 0.307326,-0.03 0.423898,0 0.116572,0.03 0.02119,0.0545 -0.211949,0.0545 -0.233144,0 -0.328521,-0.0245 -0.211949,-0.0545 z m 1.213442,-4.7e-4 c 0.11784,-0.0302 0.281343,-0.0282 0.363341,0.004 0.082,0.0326 -0.01442,0.0573 -0.214254,0.0549 -0.199837,-0.002 -0.266927,-0.0291 -0.149087,-0.0593 z m -8.098153,-2.9248 -0.230721,-0.26798 0.272506,0.22689 c 0.256088,0.21322 0.327642,0.30908 0.230721,0.30908 -0.02298,0 -0.14561,-0.1206 -0.272506,-0.26799 z m -0.605569,-0.59552 -0.23072,-0.26798 0.272506,0.22689 c 0.256087,0.21322 0.327641,0.30908 0.23072,0.30908 -0.02298,0 -0.14561,-0.12059 -0.272506,-0.26799 z m 34.559197,-3.7486 c 0.216491,-0.0264 0.570749,-0.0264 0.78724,0 0.21649,0.0264 0.03936,0.048 -0.39362,0.048 -0.432982,0 -0.61011,-0.0216 -0.39362,-0.048 z m 22.096546,-0.003 c 0.71239,-0.021 1.91142,-0.0211 2.6645,-1.2e-4 0.75308,0.0209 0.17021,0.0381 -1.29526,0.0382 -1.46548,9e-5 -2.08164,-0.017 -1.36924,-0.0381 z m 9.87748,0.003 c 0.21649,-0.0264 0.57075,-0.0264 0.78724,0 0.21649,0.0264 0.0394,0.048 -0.39362,0.048 -0.43298,0 -0.61011,-0.0216 -0.39362,-0.048 z m 10.17355,0 c 0.21649,-0.0264 0.57075,-0.0264 0.78724,0 0.21649,0.0264 0.0394,0.048 -0.39362,0.048 -0.43298,0 -0.61011,-0.0216 -0.39362,-0.048 z m 7.59424,-0.064 c -0.0322,-0.0826 -0.0433,-1.7575 -0.0246,-3.72199 l 0.034,-3.57181 0.0284,3.6602 0.0284,3.66021 2.75534,0.0344 2.75534,0.0344 -2.75914,0.0274 c -2.1291,0.0212 -2.77252,-0.007 -2.81774,-0.12276 z m 21.5906,0.0653 0.75337,-0.0454 0.0395,-1.48338 0.0395,-1.48339 -0.006,1.51876 -0.006,1.51875 -0.78724,0.0101 -0.78724,0.0101 0.75339,-0.0454 z m 4.96923,-10e-4 c 0.21649,-0.0264 0.57075,-0.0264 0.78724,0 0.21649,0.0264 0.0394,0.048 -0.39362,0.048 -0.43298,0 -0.61011,-0.0216 -0.39362,-0.048 z m -66.11326,-0.59868 c -0.15065,-0.18891 -0.14637,-0.19312 0.0457,-0.045 0.20175,0.15559 0.26591,0.2534 0.16623,0.2534 -0.0252,0 -0.12053,-0.0938 -0.21195,-0.20843 z m 13.0712,-0.714 c 0.55272,-0.0221 1.42474,-0.022 1.93782,2.4e-4 0.51308,0.0223 0.0609,0.0404 -1.00494,0.0402 -1.0658,-1.2e-4 -1.4856,-0.0184 -0.93288,-0.0405 z m 29.00693,-6e-5 c 0.58613,-0.0219 1.51265,-0.0218 2.05894,2.3e-4 0.54628,0.022 0.0667,0.0399 -1.0657,0.0398 -1.13241,-1.2e-4 -1.57937,-0.0182 -0.99324,-0.04 z m 14.0505,-0.92362 c 7.3e-4,-0.39304 0.0233,-0.53947 0.0503,-0.3254 0.0269,0.21407 0.0264,0.53565 -0.001,0.71462 -0.0276,0.17897 -0.0497,0.004 -0.049,-0.38922 z m -51.58419,-1.42925 c 2.4e-4,-0.9171 0.0192,-1.27653 0.0422,-0.79874 0.0231,0.4778 0.0229,1.22815 -3.7e-4,1.66746 -0.0232,0.4393 -0.0421,0.0484 -0.0419,-0.86872 z m -29.943754,0.89328 c 0,-0.16377 0.02749,-0.23076 0.06109,-0.14888 0.0336,0.0819 0.0336,0.21588 0,0.29776 -0.0336,0.0819 -0.06109,0.0149 -0.06109,-0.14888 z m 7.412476,-0.83372 c 0,-0.62232 0.02041,-0.87691 0.04536,-0.56575 0.02495,0.31116 0.02495,0.82033 0,1.13149 -0.02495,0.31116 -0.04536,0.0566 -0.04536,-0.56574 z m 9.00959,-0.31709 c 0.08326,-0.033 0.219518,-0.033 0.302784,0 0.08327,0.033 0.01514,0.0601 -0.151392,0.0601 -0.166532,0 -0.234658,-0.027 -0.151392,-0.0601 z m 1.998376,-0.003 c 0.116572,-0.03 0.307326,-0.03 0.423898,0 0.116572,0.03 0.02119,0.0545 -0.211949,0.0545 -0.233144,0 -0.328521,-0.0245 -0.211949,-0.0545 z m -18.430003,-0.58289 c 0.0058,-0.13875 0.03451,-0.16697 0.07317,-0.072 0.03499,0.086 0.03069,0.1887 -0.0096,0.22828 -0.04024,0.0396 -0.06887,-0.0308 -0.06361,-0.15632 z m 87.349735,-0.52605 c 0,-0.36029 0.0227,-0.50768 0.0504,-0.32754 0.0277,0.18015 0.0277,0.47493 0,0.65508 -0.0278,0.18014 -0.0504,0.0327 -0.0504,-0.32754 z m -59.4123,-1.03689 c 0.14987,-0.0284 0.39513,-0.0284 0.54501,0 0.14988,0.0284 0.0273,0.0516 -0.27251,0.0516 -0.29976,0 -0.42238,-0.0232 -0.2725,-0.0516 z m 26.59171,-0.57101 c 7.3e-4,-0.39304 0.0233,-0.53948 0.0502,-0.3254 0.027,0.21407 0.0264,0.53565 -0.001,0.71462 -0.0276,0.17897 -0.0497,0.004 -0.049,-0.38922 z m 6.41903,0 c 7.2e-4,-0.39304 0.0233,-0.53948 0.0502,-0.3254 0.027,0.21407 0.0264,0.53565 -0.001,0.71462 -0.0276,0.17897 -0.0497,0.004 -0.049,-0.38922 z m 17.55654,0.57253 c 0.11784,-0.0302 0.28134,-0.0282 0.36334,0.004 0.082,0.0326 -0.0144,0.0573 -0.21425,0.0549 -0.19984,-0.002 -0.26693,-0.0291 -0.14909,-0.0593 z m -50.74896,-1.31437 c 0.2498,-0.0257 0.65856,-0.0257 0.90836,0 0.24979,0.0257 0.0454,0.0467 -0.45418,0.0467 -0.49959,0 -0.70397,-0.021 -0.45418,-0.0467 z m 50.38331,0 c 0.2498,-0.0257 0.65856,-0.0257 0.90836,0 0.24979,0.0257 0.0454,0.0467 -0.45418,0.0467 -0.49959,0 -0.70397,-0.021 -0.45418,-0.0467 z m -81.363839,-3.99254 -0.478756,-0.50619 0.514733,0.47081 c 0.478697,0.43785 0.570389,0.54157 0.478757,0.54157 -0.01979,0 -0.251418,-0.22778 -0.514734,-0.50619 z m 5.148895,-5.18101 -0.661988,-0.68485 0.696403,0.651 c 0.646982,0.60481 0.751885,0.71869 0.661989,0.71869 -0.01893,0 -0.332311,-0.30818 -0.696404,-0.68484 z M 63.055179,99.327421 c 0.11784,-0.0302 0.281344,-0.02821 0.363341,0.0044 0.082,0.03263 -0.01442,0.05733 -0.214253,0.05491 -0.199838,-0.0024 -0.266928,-0.02912 -0.149088,-0.05932 z m 2.722754,0.0037 c 0.08327,-0.03304 0.219519,-0.03304 0.302785,0 0.08326,0.03304 0.01514,0.06007 -0.151393,0.06007 -0.166531,0 -0.234657,-0.02703 -0.151392,-0.06007 z"
         id="path1838" />
      <path
         style="fill:#68c5eb;stroke-width:0.120105"
         d="m 52.584107,137.68002 c 0.08743,-0.0344 0.191889,-0.0302 0.232135,0.009 0.04024,0.0396 -0.03129,0.0677 -0.158962,0.0625 -0.141091,-0.006 -0.169789,-0.0339 -0.07317,-0.072 z m 38.814915,-7.51081 c 0.519291,-0.0224 1.336809,-0.0222 1.816706,3.6e-4 0.479896,0.0225 0.05502,0.0409 -0.944167,0.0407 -0.999189,-1.2e-4 -1.391831,-0.0186 -0.872539,-0.041 z m 4.564252,0.0217 0.361087,-0.0669 0.0361,-2.70224 0.0361,-2.70223 -0.0036,2.73939 -0.0036,2.73939 -0.39362,0.0298 c -0.383896,0.029 -0.384699,0.0281 -0.03253,-0.0371 z m 4.142666,-0.0204 c 1.7285,-0.037 1.78009,-0.0455 1.82839,-0.30288 0.0422,-0.22468 0.0479,-0.21969 0.038,0.0329 l -0.0117,0.29776 -1.81671,0.005 -1.816703,0.005 1.778693,-0.038 z m 5.08677,0 c 1.7285,-0.037 1.7801,-0.0455 1.8284,-0.30288 0.0422,-0.22468 0.0479,-0.21969 0.038,0.0329 l -0.0117,0.29776 -1.81671,0.005 -1.81671,0.005 1.77869,-0.038 z m 4.12561,-0.001 c 0.51624,-0.0223 1.36101,-0.0223 1.87726,0 0.51625,0.0223 0.0939,0.0406 -0.93863,0.0406 -1.0325,0 -1.45488,-0.0183 -0.93863,-0.0406 z M 91.292985,127.1018 c -1.08e-4,-1.31014 0.01759,-1.86236 0.03932,-1.22715 0.02173,0.63521 0.02182,1.70714 2.42e-4,2.38208 -0.02163,0.67493 -0.03941,0.15521 -0.03952,-1.15493 z m -25.74971,1.28833 c 0.08743,-0.0344 0.191889,-0.0302 0.232135,0.009 0.04025,0.0396 -0.03129,0.0677 -0.158961,0.0626 -0.141092,-0.006 -0.16979,-0.0339 -0.07317,-0.072 z m 44.380615,-1.31679 c 0.38302,-0.0236 1.00978,-0.0236 1.3928,0 0.38303,0.0236 0.0696,0.043 -0.6964,0.043 -0.76604,0 -1.07943,-0.0193 -0.6964,-0.043 z M 48.277,113.85152 c 1.049148,-0.0198 2.765935,-0.0198 3.815082,0 1.049148,0.0198 0.190754,0.0361 -1.907541,0.0361 -2.098295,0 -2.956689,-0.0162 -1.907541,-0.0361 z m 8.266012,-4.07953 c 0.120567,-0.13102 0.246464,-0.23821 0.27977,-0.23821 0.03331,0 -0.03809,0.10719 -0.158657,0.23821 -0.120567,0.13101 -0.246464,0.23821 -0.27977,0.23821 -0.03331,0 0.03809,-0.1072 0.158657,-0.23821 z m 7.844418,-3.29834 c 0.11784,-0.0302 0.281344,-0.0282 0.363341,0.004 0.082,0.0326 -0.01442,0.0573 -0.214253,0.0549 -0.199838,-0.002 -0.266928,-0.0291 -0.149088,-0.0593 z m -0.726682,-7.146229 c 0.11784,-0.0302 0.281343,-0.02821 0.363341,0.0044 0.082,0.03263 -0.01442,0.05733 -0.214254,0.05491 -0.199837,-0.0024 -0.266927,-0.02912 -0.149087,-0.05932 z m 1.63273,0.0037 c 0.08327,-0.03304 0.219519,-0.03304 0.302785,0 0.08327,0.03304 0.01514,0.06007 -0.151392,0.06007 -0.166532,0 -0.234658,-0.02703 -0.151393,-0.06007 z"
         id="path1836" />
      <path
         style="fill:#91b3ca;stroke-width:0.120105"
         d="m 111.64305,117.45418 c -5e-5,-2.03072 0.0165,-2.87821 0.0367,-1.88331 0.0202,0.99489 0.0203,2.65639 9e-5,3.69221 -0.0202,1.03583 -0.0367,0.22182 -0.0368,-1.8089 z m 5.31145,3.03715 c 0,-0.36029 0.0227,-0.50768 0.0504,-0.32754 0.0278,0.18015 0.0278,0.47493 0,0.65508 -0.0277,0.18014 -0.0504,0.0327 -0.0504,-0.32754 z m 33.55999,-3.03715 c 2.4e-4,-0.9171 0.0192,-1.27653 0.0422,-0.79874 0.0231,0.4778 0.0229,1.22815 -3.6e-4,1.66746 -0.0232,0.4393 -0.0421,0.0484 -0.0419,-0.86872 z m -57.84931,1.0433 c 0.416329,-0.0232 1.097593,-0.0232 1.513922,0 0.416328,0.0233 0.0757,0.0423 -0.756961,0.0423 -0.832657,0 -1.173289,-0.019 -0.756961,-0.0423 z m 71.34174,-0.47693 c 0.55271,-0.0221 1.42473,-0.022 1.93782,2.4e-4 0.51308,0.0223 0.0609,0.0404 -1.00494,0.0402 -1.06581,-1.2e-4 -1.4856,-0.0184 -0.93288,-0.0405 z m -18.10624,-0.62592 c 0,-0.36029 0.0227,-0.50768 0.0505,-0.32753 0.0277,0.18014 0.0277,0.47492 0,0.65507 -0.0277,0.18014 -0.0505,0.0327 -0.0505,-0.32754 z m -50.633735,-1.19104 c 0,-0.22927 0.02492,-0.32307 0.05539,-0.20843 0.03046,0.11464 0.03046,0.30223 0,0.41687 -0.03046,0.11463 -0.05539,0.0208 -0.05539,-0.20844 z m 61.768005,-0.1191 c 0,-0.22928 0.0249,-0.32307 0.0554,-0.20843 0.0305,0.11464 0.0305,0.30222 0,0.41686 -0.0305,0.11464 -0.0554,0.0208 -0.0554,-0.20843 z m 5.94621,-1.36969 c 0,-0.45855 0.0224,-0.63155 0.0487,-0.38444 0.0262,0.24712 0.0258,0.62229 -0.001,0.83373 -0.0268,0.21144 -0.0482,0.009 -0.0477,-0.44929 z m -60.02131,0.33798 c 0.0833,-0.033 0.21952,-0.033 0.30278,0 0.0833,0.033 0.0151,0.0601 -0.15139,0.0601 -0.16653,0 -0.23466,-0.027 -0.15139,-0.0601 z m 1.45336,0 c 0.0833,-0.033 0.21952,-0.033 0.30279,0 0.0833,0.033 0.0151,0.0601 -0.1514,0.0601 -0.16653,0 -0.23465,-0.027 -0.15139,-0.0601 z m 48.9905,-0.003 c 0.11658,-0.0299 0.30733,-0.0299 0.4239,0 0.11657,0.03 0.0212,0.0545 -0.21195,0.0545 -0.23314,0 -0.32852,-0.0245 -0.21195,-0.0545 z m 1.27927,7.2e-4 c 0.0874,-0.0344 0.19189,-0.0302 0.23213,0.009 0.0403,0.0396 -0.0313,0.0677 -0.15896,0.0626 -0.14109,-0.006 -0.16979,-0.0339 -0.0732,-0.072 z m 16.35035,-0.47642 c 0.0874,-0.0344 0.19189,-0.0302 0.23214,0.009 0.0402,0.0396 -0.0313,0.0677 -0.15896,0.0626 -0.1411,-0.006 -0.16979,-0.0339 -0.0732,-0.072 z"
         id="path1834" />
      <path
         style="fill:#5bb4dc;stroke-width:0.120105"
         d="m 52.947448,137.68002 c 0.08743,-0.0344 0.191889,-0.0302 0.232135,0.009 0.04024,0.0396 -0.03129,0.0677 -0.158962,0.0625 -0.141091,-0.006 -0.169789,-0.0339 -0.07317,-0.072 z m -4.588779,-1.79453 -0.293618,-0.32753 0.333063,0.28874 c 0.311297,0.26988 0.388604,0.36633 0.293617,0.36633 -0.02169,0 -0.171573,-0.14739 -0.333062,-0.32754 z m -1.873178,-9.79628 c 0,-2.78405 0.01585,-3.92298 0.03523,-2.53096 0.01938,1.39203 0.01938,3.66989 0,5.06191 -0.01937,1.39203 -0.03523,0.2531 -0.03523,-2.53095 z m 31.065691,4.25796 c 0.50189,-0.52587 0.61063,-0.62042 0.61063,-0.53099 0,0.0191 -0.258881,0.2737 -0.575291,0.56574 l -0.57529,0.53099 z m 14.447873,-0.89197 c 0.383022,-0.0236 1.009785,-0.0236 1.392808,0 0.383022,0.0236 0.06964,0.043 -0.696404,0.043 -0.766045,0 -1.079426,-0.0193 -0.696404,-0.043 z m 7.872392,0 c 0.383023,-0.0236 1.009783,-0.0236 1.392803,0 0.38303,0.0236 0.0696,0.043 -0.6964,0.043 -0.766044,0 -1.079425,-0.0193 -0.696403,-0.043 z m 5.086773,0 c 0.38303,-0.0236 1.00979,-0.0236 1.39281,0 0.38302,0.0236 0.0696,0.043 -0.6964,0.043 -0.76605,0 -1.07943,-0.0193 -0.69641,-0.043 z m 4.24942,-0.86481 c 0,-0.49131 0.0214,-0.69229 0.0475,-0.44664 0.0261,0.24565 0.0261,0.64763 0,0.89328 -0.0261,0.24565 -0.0475,0.0447 -0.0475,-0.44664 z m -9.6e-4,-2.32253 c 4.8e-4,-0.45855 0.0224,-0.63154 0.0486,-0.38443 0.0262,0.24712 0.0258,0.62229 -9.7e-4,0.83373 -0.0268,0.21144 -0.0482,0.009 -0.0477,-0.4493 z m -36.79777,-1.01238 c 0.260181,-0.26203 0.500308,-0.47641 0.533615,-0.47641 0.03331,0 -0.15232,0.21438 -0.412502,0.47641 -0.260181,0.26203 -0.500308,0.47642 -0.533614,0.47642 -0.03331,0 0.152319,-0.21439 0.412501,-0.47642 z M 56.845796,109.48881 c 0,-0.0247 0.09538,-0.11852 0.211949,-0.20843 0.192094,-0.14815 0.196378,-0.14394 0.04573,0.045 -0.15822,0.1984 -0.257677,0.26149 -0.257677,0.16346 z m 7.123001,-3.01398 c 0.08743,-0.0344 0.191889,-0.0302 0.232135,0.009 0.04024,0.0396 -0.03129,0.0677 -0.158962,0.0626 -0.141091,-0.006 -0.169789,-0.0339 -0.07317,-0.072 z m 0.96134,0.002 c 0.08327,-0.033 0.219519,-0.033 0.302785,0 0.08326,0.033 0.01514,0.0601 -0.151393,0.0601 -0.166531,0 -0.234657,-0.027 -0.151392,-0.0601 z m -14.018913,-1.27622 c 0,-0.0247 0.09538,-0.11853 0.211949,-0.20844 0.192093,-0.14815 0.196377,-0.14393 0.04573,0.045 -0.158219,0.1984 -0.257676,0.26149 -0.257676,0.16347 z m 0.847796,-0.83373 c 0,-0.0247 0.09538,-0.11853 0.211949,-0.20843 0.192093,-0.14815 0.196377,-0.14394 0.04573,0.045 -0.158219,0.19839 -0.257676,0.26149 -0.257676,0.16346 z m 12.627771,-5.042857 c 0.1841,-0.02738 0.456606,-0.02665 0.605568,0.0016 0.148963,0.02827 -0.0017,0.05067 -0.334728,0.04978 -0.333062,-9.53e-4 -0.45494,-0.02403 -0.27084,-0.0514 z"
         id="path1832" />
      <path
         style="fill:#6293b4;stroke-width:0.120105"
         d="m 103.26263,121.11841 c 0.31641,-0.0245 0.83417,-0.0245 1.15058,0 0.31641,0.0245 0.0575,0.0446 -0.57529,0.0446 -0.63282,0 -0.8917,-0.0201 -0.57529,-0.0446 z m 49.96347,-3.6e-4 c 0.35195,-0.0241 0.89696,-0.0239 1.21114,5.9e-4 0.31418,0.0245 0.0262,0.0442 -0.63991,0.0439 -0.66612,-3.6e-4 -0.92318,-0.0203 -0.57123,-0.0444 z m 8.3158,-3.66387 c -5e-5,-2.03072 0.0165,-2.87821 0.0367,-1.88331 0.0202,0.99489 0.0203,2.65639 1e-4,3.69221 -0.0202,1.03583 -0.0367,0.22182 -0.0368,-1.8089 z m -10.42058,3.00737 -0.23072,-0.26798 0.27251,0.22689 c 0.14988,0.12479 0.27251,0.24538 0.27251,0.26799 0,0.0953 -0.0975,0.0249 -0.3143,-0.2269 z m -38.02611,-3.54333 c 0,-1.67043 0.017,-2.35379 0.0379,-1.51858 0.0208,0.83522 0.0208,2.20193 0,3.03715 -0.0208,0.83521 -0.0379,0.15186 -0.0379,-1.51857 z m -6.09877,2.3126 c 0.006,-0.13875 0.0345,-0.16698 0.0732,-0.072 0.035,0.086 0.0307,0.1887 -0.01,0.22828 -0.0402,0.0396 -0.0689,-0.0308 -0.0636,-0.15632 z m 48.71114,-0.52605 c 0,-0.29478 0.0236,-0.41537 0.0525,-0.26798 0.0289,0.14739 0.0289,0.38858 0,0.53597 -0.0289,0.14739 -0.0525,0.0268 -0.0525,-0.26799 z m -3.74045,-1.36969 c 2.4e-4,-0.85159 0.0195,-1.18434 0.0429,-0.73945 0.0234,0.4449 0.0232,1.14166 -3.7e-4,1.54835 -0.0236,0.4067 -0.0427,0.0427 -0.0425,-0.8089 z m -28.88758,-0.7444 c -0.15065,-0.18891 -0.14636,-0.19312 0.0457,-0.045 0.20175,0.1556 0.2659,0.2534 0.16622,0.2534 -0.0251,0 -0.12052,-0.0938 -0.21195,-0.20843 z m -26.354352,-0.38709 c 0,-0.29478 0.02362,-0.41537 0.05249,-0.26798 0.02887,0.14739 0.02887,0.38858 0,0.53597 -0.02887,0.14739 -0.05249,0.0268 -0.05249,-0.26799 z m 58.876012,0.18872 c -0.0362,-0.0927 -0.0426,-0.32051 -0.0144,-0.50619 0.0438,-0.28776 0.0541,-0.27254 0.0696,0.1031 l 0.0181,0.44069 0.6964,0.043 0.6964,0.043 -0.7002,0.0225 c -0.50823,0.0164 -0.71824,-0.0237 -0.76599,-0.14607 z m -48.60477,-0.6155 c 0.006,-0.13875 0.0345,-0.16698 0.0732,-0.072 0.035,0.086 0.0307,0.1887 -0.01,0.22828 -0.0402,0.0396 -0.0689,-0.0308 -0.0636,-0.15632 z m -14.452373,-0.73296 c 0.349715,-0.0241 0.921978,-0.0241 1.271694,0 0.349716,0.0241 0.06358,0.0437 -0.635847,0.0437 -0.699432,0 -0.985563,-0.0197 -0.635847,-0.0437 z m 38.271933,0 c 0.34972,-0.0241 0.92198,-0.0241 1.2717,0 0.34971,0.0241 0.0636,0.0437 -0.63585,0.0437 -0.69943,0 -0.98556,-0.0197 -0.63585,-0.0437 z m 3.87564,0 c 0.34972,-0.0241 0.92198,-0.0241 1.2717,0 0.34971,0.0241 0.0636,0.0437 -0.63585,0.0437 -0.69943,0 -0.98556,-0.0197 -0.63585,-0.0437 z m 8.42335,-9.5e-4 c 0.58613,-0.0219 1.51265,-0.0218 2.05894,2.4e-4 0.54628,0.022 0.0667,0.0399 -1.0657,0.0398 -1.13241,-1.2e-4 -1.57937,-0.0182 -0.99324,-0.04 z m 9.87239,0.007 c 0.0874,-0.0344 0.1919,-0.0302 0.23214,0.009 0.0402,0.0396 -0.0313,0.0677 -0.15896,0.0626 -0.14109,-0.006 -0.16979,-0.0339 -0.0732,-0.072 z m 17.35153,-1.17916 c 0.006,-0.13875 0.0345,-0.16697 0.0732,-0.072 0.035,0.086 0.0307,0.18871 -0.01,0.22829 -0.0402,0.0396 -0.0689,-0.0308 -0.0636,-0.15633 z m 0.48446,0 c 0.006,-0.13875 0.0345,-0.16697 0.0732,-0.072 0.035,0.086 0.0307,0.18871 -0.01,0.22829 -0.0402,0.0396 -0.0689,-0.0308 -0.0636,-0.15633 z m -75.970573,-0.0119 c 0.08743,-0.0344 0.19189,-0.0302 0.232135,0.009 0.04024,0.0396 -0.03129,0.0677 -0.158962,0.0626 -0.141091,-0.006 -0.169789,-0.0339 -0.07317,-0.072 z m 76.511193,-0.26772 c -0.0827,-0.13164 0.10833,-0.27378 0.22017,-0.1638 0.11515,0.11324 0.0937,0.27467 -0.0365,0.27467 -0.0627,0 -0.14532,-0.0499 -0.18365,-0.11087 z m -0.33823,-0.68263 c 0.0833,-0.033 0.21952,-0.033 0.30278,0 0.0833,0.033 0.0151,0.0601 -0.15139,0.0601 -0.16653,0 -0.23466,-0.027 -0.15139,-0.0601 z"
         id="path1830" />
      <path
         style="fill:#009ddf;stroke-width:0.120105"
         d="m 51.299936,137.45699 c -1.751161,-0.46354 -3.231967,-1.61213 -3.963597,-3.07437 -0.739904,-1.47877 -0.780759,-1.89125 -0.783107,-7.90632 l -0.0021,-5.38945 h 3.690302 3.690301 l 0.408869,0.87026 c 0.584413,1.24389 1.157492,2.07961 2.099335,3.06144 1.394004,1.4532 3.037491,2.43896 5.094376,3.05561 0.962715,0.28862 1.249489,0.31928 3.002206,0.32103 2.281799,0.002 3.201061,-0.19312 4.965662,-1.05552 2.872182,-1.40369 4.997535,-3.93568 5.898462,-7.027 0.37334,-1.28103 0.399769,-4.19006 0.04968,-5.46871 -1.24026,-4.52989 -4.929074,-7.71463 -9.604366,-8.29192 -3.656303,-0.45147 -7.668911,1.15725 -9.960764,3.99345 -0.759584,0.93999 -1.446939,2.0739 -1.715126,2.82939 l -0.15855,0.44664 h -3.745674 -3.745674 l 0.07667,-0.47149 c 0.04217,-0.25932 0.245271,-0.96948 0.451343,-1.57813 2.038638,-6.02127 7.018825,-10.45894 13.431028,-11.967902 1.868638,-0.439741 5.15751,-0.519922 7.206266,-0.175685 6.669501,1.120627 12.219833,5.771937 14.350525,12.026087 0.743089,2.18117 0.89682,3.17533 0.896841,5.79978 2.2e-5,2.69282 -0.176813,3.79703 -0.964448,6.02229 -0.950195,2.68454 -2.218892,4.64034 -4.404102,6.78928 -2.203047,2.16649 -4.347904,3.48908 -7.141347,4.40359 C 64.98986,136.448 58.754425,135.60059 54.166171,132.46 l -0.772112,-0.5285 -0.03243,2.85539 -0.03243,2.85539 -0.69425,-0.008 c -0.381838,-0.004 -0.982591,-0.0842 -1.335005,-0.17745 z m 39.215476,-9.99809 v -2.67983 h 0.36078 0.360781 l 0.03284,2.3523 0.03284,2.3523 1.362529,0.0337 c 1.358546,0.0336 1.36253,0.0345 1.36253,0.32754 v 0.29386 h -1.756149 -1.756149 z m 5.086776,0 v -2.67983 h 0.363341 0.363341 v 2.67983 2.67984 h -0.363341 -0.363341 z m 2.785616,0 v -2.67983 h 0.423898 0.423898 v 2.38207 2.38208 h 1.33225 1.33225 v 0.29776 0.29776 h -1.75615 -1.756146 z m 5.086776,0 v -2.67983 h 0.4239 0.4239 v 2.38207 2.38208 h 1.33225 1.33225 v 0.29776 0.29776 h -1.75615 -1.75615 z m 4.96566,0 v -2.67983 h 1.81671 1.8167 v 0.35731 0.35731 h -1.45889 -1.4589 l 0.0358,0.80395 0.0358,0.80395 1.36253,0.0337 c 1.35855,0.0336 1.36253,0.0345 1.36253,0.32753 v 0.29386 h -1.39811 -1.39812 l 0.0356,0.8635 0.0356,0.86351 1.42309,0.0336 1.42308,0.0336 v 0.29398 0.29398 h -1.8167 -1.81671 z"
         id="path1828" />
      <path
         style="fill:#025187;stroke-width:0.120105"
         d="m 90.515412,117.44176 v -3.6451 l 2.391996,0.0459 c 2.81614,0.054 3.12407,0.14121 3.549524,1.00549 0.361291,0.73395 0.308977,2.30198 -0.0954,2.85947 -0.463786,0.63941 -0.896695,0.75909 -2.745748,0.75909 h -1.64701 v 1.31014 1.31014 H 91.242092 90.51541 Z m 4.615896,-0.41779 c 0.217337,-0.21373 0.248026,-0.35728 0.204091,-0.9546 -0.02844,-0.38668 -0.113665,-0.76397 -0.189385,-0.83844 -0.08114,-0.0798 -0.761784,-0.15903 -1.657455,-0.19296 l -1.519783,-0.0576 v 1.14756 1.14757 h 1.453365 c 1.317589,0 1.477262,-0.0235 1.709167,-0.25156 z m 6.524722,3.7949 c -0.94146,-0.46928 -1.02762,-0.74641 -1.02762,-3.30513 0,-2.55471 0.0869,-2.86289 0.94302,-3.34518 0.47508,-0.26763 0.63169,-0.28749 2.26649,-0.28749 1.55337,0 1.80505,0.0282 2.17964,0.24465 0.94145,0.54387 1.18262,1.49117 1.06228,4.17268 -0.0731,1.62821 -0.27502,2.10751 -1.06002,2.51574 -0.47237,0.24565 -0.68822,0.27271 -2.17528,0.27271 -1.47199,0 -1.70914,-0.029 -2.18851,-0.26798 z m 3.75637,-1.16127 c 0.22121,-0.21754 0.24208,-0.39578 0.24057,-2.05454 -9.6e-4,-0.99898 -0.0333,-1.93253 -0.0721,-2.07456 -0.11259,-0.41279 -0.6326,-0.54296 -1.98761,-0.49756 -1.04735,0.0351 -1.25391,0.0753 -1.40031,0.27236 -0.13139,0.17687 -0.17174,0.68141 -0.17174,2.14715 0,2.53907 -0.0676,2.44536 1.76301,2.44536 1.22446,0 1.41417,-0.0277 1.62817,-0.23821 z m 6.29791,-2.20342 v -3.63266 h 0.66613 0.66612 v 3.03714 3.03715 h 1.93782 1.93782 v 0.59552 0.59552 h -2.60394 -2.60395 z m 10.77913,2.13249 v -1.50017 l -1.39794,-1.95723 c -0.76886,-1.07648 -1.42871,-2.0361 -1.46632,-2.13249 -0.0559,-0.14316 0.0752,-0.17526 0.71569,-0.17526 h 0.78408 l 1.05739,1.49283 1.0574,1.49284 1.05066,-1.46306 1.05066,-1.46306 0.81479,-0.0352 c 0.44814,-0.0194 0.81479,-0.001 0.81479,0.0399 0,0.0413 -0.68126,1.00291 -1.51392,2.13682 l -1.51392,2.06166 v 1.50129 1.50129 h -0.72668 -0.72668 z m 10.17355,-1.53697 v -3.03714 h -1.21114 -1.21114 v -0.59552 -0.59552 h 3.14896 3.14896 v 0.59552 0.59552 h -1.21114 -1.21114 v 3.03714 3.03715 h -0.72668 -0.72668 z m 7.9935,-0.5978 v -3.63494 l 2.69478,0.0321 2.69478,0.032 0.0369,0.56574 0.0369,0.56575 h -2.00501 -2.00501 v 0.89327 0.89328 h 1.87726 1.87726 v 0.59552 0.59552 h -1.87726 -1.87726 v 0.95283 0.95283 h 1.99837 1.99838 v 0.59552 0.59552 h -2.72506 -2.72506 z m 11.20302,3.46614 c -0.50037,-0.21964 -1.01085,-0.78133 -1.15296,-1.26862 -0.0653,-0.22391 -0.11873,-1.24025 -0.11873,-2.25854 0,-1.68314 0.0248,-1.89974 0.27251,-2.38286 0.20859,-0.40679 0.41453,-0.60127 0.87807,-0.82919 0.55943,-0.27507 0.73476,-0.29776 2.30116,-0.29776 1.36727,0 1.76833,0.0392 2.07123,0.20234 0.55373,0.29828 0.79789,0.7495 0.86759,1.6033 l 0.0616,0.75509 h -0.66696 -0.66695 l -0.064,-0.5585 c -0.094,-0.8197 -0.26011,-0.89746 -1.81299,-0.84851 -1.77248,0.0559 -1.83313,0.11509 -1.89032,1.84566 -0.0537,1.62592 0.0567,2.49401 0.35459,2.78695 0.20156,0.19822 0.41333,0.22841 1.60193,0.22841 0.91732,0 1.43925,-0.05 1.58038,-0.15153 0.13869,-0.0997 0.2352,-0.38472 0.28232,-0.83372 l 0.0716,-0.6822 h 0.64918 0.64918 l -2.4e-4,0.7444 c -2.4e-4,0.99179 -0.26548,1.49965 -0.96411,1.84611 -0.4856,0.24081 -0.71279,0.26751 -2.2406,0.26332 -1.14951,-0.003 -1.8179,-0.0563 -2.06355,-0.16415 z m 9.74966,-3.46386 v -3.63266 h 0.66612 0.66613 v 1.48879 1.4888 h 1.93782 1.93782 v -1.49474 -1.49474 l 0.6964,0.0357 0.69641,0.0357 0.0321,3.60289 0.032,3.60289 h -0.72845 -0.72846 v -1.54835 -1.54835 h -1.93782 -1.93782 v 1.54835 1.54835 h -0.66613 -0.66612 z m 8.9182,-2.92668 c -0.39987,-0.30932 -0.43754,-0.94685 -0.0769,-1.3015 0.37599,-0.36975 1.12435,-0.32474 1.45404,0.0875 0.7032,0.87913 -0.47144,1.91465 -1.37714,1.21405 z m 1.13424,-0.11046 c 0.46564,-0.45792 0.16472,-1.31182 -0.46105,-1.30832 -0.39394,0.002 -0.54869,0.0946 -0.73196,0.43698 -0.199,0.37181 -0.17649,0.48822 0.15803,0.8172 0.36043,0.35444 0.71096,0.37278 1.03498,0.0541 z m -0.83687,-0.16571 c -0.24941,-0.29553 -0.1173,-0.8403 0.21498,-0.88653 0.15757,-0.0219 0.33883,0.0116 0.40282,0.0745 0.0743,0.0731 0.008,0.094 -0.18373,0.058 -0.38334,-0.0721 -0.57298,0.36849 -0.28186,0.65478 0.16283,0.16013 0.21586,0.16234 0.39549,0.0165 0.18013,-0.14625 0.19962,-0.1449 0.14799,0.0102 -0.0813,0.24427 -0.51278,0.28924 -0.69569,0.0725 z"
         id="path1826" />
    </g>
  </g>
</svg>
